<svg width="87" height="87" viewBox="0 0 87 87" fill="none" xmlns="http://www.w3.org/2000/svg">
<circle cx="43.5" cy="43.5" r="43.5" fill="#2FC83F"/>
<path fill-rule="evenodd" clip-rule="evenodd" d="M58.4389 27.6747C56.4331 25.6679 54.0501 24.0777 51.4273 22.9956C48.8044 21.9135 45.9934 21.3608 43.1561 21.3694C31.2486 21.3694 21.5553 31.0143 21.5505 42.8713C21.5452 46.6469 22.5405 50.3564 24.4349 53.6223L21.3694 64.7607L32.8225 61.7707C35.9928 63.4882 39.5417 64.3871 43.1473 64.3858H43.1561C55.0625 64.3858 64.7548 54.74 64.7606 42.8839C64.7678 40.0563 64.2126 37.2554 63.1273 34.6444C62.042 32.0333 60.4483 29.6641 58.4389 27.6747ZM43.1561 60.7567H43.1483C39.934 60.7576 36.7782 59.8974 34.009 58.2655L33.3533 57.8781L26.557 59.6525L28.3711 53.0576L27.9439 52.3796C26.1467 49.5342 25.1944 46.2369 25.1981 42.8713C25.1981 33.0182 33.2574 25.0015 43.1628 25.0015C47.9146 24.993 52.4751 26.8723 55.8413 30.226C59.2075 33.5797 61.1038 38.1332 61.1131 42.8849C61.1092 52.739 53.0537 60.7567 43.1561 60.7567ZM53.0053 47.3722C52.4658 47.103 49.8091 45.8032 49.317 45.624C48.825 45.4448 48.4618 45.3547 48.1025 45.8932C47.7431 46.4317 46.7077 47.6366 46.393 47.9998C46.0782 48.363 45.7634 48.4028 45.2239 48.1335C44.6844 47.8642 42.9439 47.2976 40.8819 45.4671C39.277 44.0423 38.1941 42.2834 37.8794 41.7459C37.5646 41.2083 37.8455 40.9168 38.1157 40.6495C38.3588 40.4083 38.6552 40.0218 38.9254 39.708C39.1956 39.3942 39.2857 39.1695 39.4649 38.8112C39.6441 38.4528 39.555 38.139 39.4203 37.8707C39.2857 37.6024 38.2058 34.9573 37.7564 33.8812C37.3176 32.8332 36.873 32.9756 36.5418 32.9591C36.227 32.9437 35.8638 32.9398 35.5064 32.9398C35.2332 32.9469 34.9644 33.0103 34.7167 33.1259C34.4691 33.2416 34.248 33.407 34.0671 33.612C33.5722 34.1505 32.1775 35.4522 32.1775 38.0944C32.1775 40.7366 34.1146 43.2936 34.3819 43.652C34.6492 44.0104 38.1883 49.4372 43.6035 51.7646C44.6091 52.1952 45.6365 52.5728 46.6816 52.8959C47.9746 53.3046 49.1514 53.2475 50.0812 53.109C51.1185 52.955 53.2774 51.8092 53.7259 50.5539C54.1743 49.2987 54.1753 48.2236 54.0407 47.9998C53.906 47.7761 53.5457 47.6405 53.0053 47.3722Z" fill="white"/>
</svg>
